<svg xmlns="http://www.w3.org/2000/svg" viewBox="0 0 600 600">
  <style>path{fill:#fff}@media(prefers-color-scheme:light){path{fill:#0c0c12}}</style>
  <path d="M300 300L300 213A87 87 0 0 1 387 300Z M300 300L300 387A87 87 0 0 1 213 300Z M113 300A187 187 0 0 1 300 113L300 167A133 133 0 0 0 167 300Z M487 300A187 187 0 0 1 300 487L300 433A133 133 0 0 0 433 300Z M46.2338 181.6669A280 280 0 0 1 418.3331 46.2338L384.101 119.6448A199 199 0 0 0 119.6448 215.899Z M553.7662 418.3331A280 280 0 0 1 181.6669 553.7662L215.899 480.3552A199 199 0 0 0 480.3552 384.101Z"/>
</svg>
