<?xml version="1.0" encoding="utf-8"?>
<!-- Generator: Adobe Illustrator 16.0.0, SVG Export Plug-In . SVG Version: 6.00 Build 0)  -->
<!DOCTYPE svg PUBLIC "-//W3C//DTD SVG 1.1//EN" "http://www.w3.org/Graphics/SVG/1.1/DTD/svg11.dtd">
<svg version="1.1" id="Ebene_1" xmlns="http://www.w3.org/2000/svg" xmlns:xlink="http://www.w3.org/1999/xlink" x="0px" y="0px"
	 width="595.281px" height="143px" viewBox="0 240.445 595.281 143" enable-background="new 0 240.445 595.281 143"
	 xml:space="preserve">
<path d="M63.302,373.041c-4.82-0.499-9.238-1.473-14.028-3.09c-2.435-0.822-6.098-2.309-6.383-2.591
	c-0.034-0.033,0.722-1.727,1.678-3.765c0.956-2.037,2.563-5.476,3.57-7.642c1.007-2.167,1.917-4.053,2.023-4.191
	c0.147-0.197,0.332-0.18,0.828,0.075c2.208,1.143,6.569,2.477,10.513,3.219c3.838,0.723,10.76,0.741,14.404,0.04
	c0.229-0.044,0.696-0.125,1.036-0.182c2.516-0.411,7.831-2.23,10.595-3.626c8.158-4.125,14.439-10.375,19.091-19.002l0.803-1.49
	l6.208,2.904c3.415,1.597,6.986,3.268,7.938,3.713l1.728,0.81l-1.297,2.436c-6.803,12.774-16.582,21.982-29.417,27.693
	c-4.206,1.871-9.838,3.505-14.406,4.18c-1.253,0.185-2.56,0.384-2.902,0.442C74.088,373.178,65.112,373.229,63.302,373.041
	L63.302,373.041z M68.344,347.264v-5.891l1.398-0.123c4.498-0.393,7.916-1.25,11.187-2.808c7.837-3.734,13.378-10.65,15.36-19.177
	c0.336-1.442,0.863-5.455,0.865-6.58c0-0.085,2.564-0.156,5.699-0.156h5.7v2.228c-0.003,5.333-1.839,12.175-4.651,17.324
	c-5.287,9.687-14.444,16.845-24.951,19.509c-2.399,0.608-5.602,1.146-6.825,1.148c-0.484,0-0.88,0.095-0.88,0.208
	c0,0.118-0.622,0.207-1.451,0.207h-1.45L68.344,347.264L68.344,347.264z M66.098,330.944c-4.498-0.644-9.005-3.203-11.832-6.715
	c-2.628-3.268-3.807-6.287-4.258-10.922l-0.116-1.192h9.329h9.329v-9.339v-9.339l1.503,0.136c9.485,0.857,16.44,7.727,17.466,17.248
	l0.141,1.294h-9.556H68.55v9.536v9.535l-0.569-0.027C67.667,331.145,66.819,331.049,66.098,330.944L66.098,330.944z M28.132,310.775
	c0-0.965,0.147-2.8,0.325-4.078c1.86-13.333,10.144-24.725,22.138-30.448c5.181-2.47,11.169-3.929,16.136-3.929h1.613v5.803v5.803
	l-1.089,0.003c-1.593,0.001-4.972,0.546-7.017,1.135c-11.577,3.321-19.635,13.383-20.431,25.509l-0.129,1.958h-5.771h-5.773v-1.756
	H28.132z M21.448,290.6c-4.303-2.014-7.824-3.759-7.824-3.877c0-0.423,2.776-5.236,4.675-8.104
	c5.896-8.91,14.167-16.221,23.385-20.676c4.95-2.392,10.251-4.202,14.638-4.997c12.449-2.258,22.945-1.181,35.029,3.593
	c1.197,0.474,2.288,0.932,2.423,1.019c0.231,0.151-0.632,2.091-6.213,13.984l-0.948,2.019l-1.654-0.708
	c-5.674-2.428-12.088-3.6-18.467-3.375c-12.07,0.428-22.965,5.785-30.858,15.176c-1.833,2.183-4.243,5.806-5.356,8.053
	c-0.43,0.872-0.833,1.579-0.893,1.57C29.322,294.269,25.751,292.612,21.448,290.6L21.448,290.6z M140.113,313.638v-61.251h15.684
	h15.685v3.786v3.786h-11.763h-11.763v53.68v53.68h11.763h11.763v3.786v3.786h-15.685h-15.684V313.638L140.113,313.638z
	 M553.326,371.104v-3.786h11.762h11.764v-53.68v-53.68h-11.764h-11.762v-3.786v-3.786h15.684h15.686v61.251v61.252h-15.686h-15.684
	V371.104L553.326,371.104z M162.017,345.132c0-9.859,0.218-11.614,1.816-14.664c1.195-2.279,3.497-4.465,5.921-5.622
	c3.027-1.444,4.625-1.588,17.751-1.599l11.831-0.009v3.65v3.651h-11.985c-13.578,0-14.029,0.053-15.844,1.867
	c-0.564,0.564-1.159,1.41-1.323,1.878l-0.297,0.852h13.507h13.508v3.378v3.377l-13.725,0.07l-13.724,0.07l-0.074,5.882l-0.072,5.882
	h-3.646h-3.646v-8.663H162.017z M209.882,338.518v-15.279h20.282h20.282l-0.004,4.124c-0.006,6.052-0.804,8.791-3.279,11.235
	c-1.414,1.398-3.221,2.318-5.809,2.958l-1.927,0.477l5.621,5.815l5.622,5.813l-4.496,0.075l-4.498,0.074l-5.961-5.956l-5.96-5.957
	h-4.527H220.7v-3.38v-3.38h9.154c6.127,0,9.458-0.102,10.074-0.308c1.178-0.394,2.057-1.191,2.703-2.453
	c1.014-1.977,1.965-1.836-12.466-1.836h-12.98v11.628v11.628h-3.65h-3.651v-15.278H209.882z M262.616,338.518v-15.279l13.183,0.009
	c14.544,0.011,16.061,0.136,19.153,1.583c2.191,1.026,4.649,3.33,5.739,5.381c1.629,3.069,1.736,3.887,1.875,14.188l0.125,9.397
	h-3.813h-3.813v-5.814v-5.814h-12.439h-12.439v5.814v5.814h-3.786h-3.786V338.518L262.616,338.518z M294.525,334.919
	c0-0.753-1.689-2.742-2.776-3.268c-1.949-0.943-3.875-1.108-12.975-1.11l-8.586-0.001v2.299v2.298h12.169
	C289.05,335.137,294.525,335.039,294.525,334.919L294.525,334.919z M315.08,345.21c0.002-4.721,0.127-9.355,0.281-10.296
	c0.865-5.331,3.924-8.966,9.076-10.785l2.135-0.753l14.266-0.085l14.266-0.087v3.668v3.667H341.73c-8.764,0-13.854,0.103-14.771,0.3
	c-0.941,0.202-1.738,0.608-2.445,1.247c-1.609,1.455-1.861,2.683-1.861,9.05v5.359h12.574H347.8v-2.298v-2.299h-2.703h-2.705v-3.38
	v-3.38h6.49h6.49v9.329v9.331h-20.146H315.08V345.21L315.08,345.21z M367.271,338.518v-15.279l16.156,0.009
	c17.959,0.011,18.975,0.087,22.338,1.687c3.951,1.881,6.813,5.681,7.473,9.933c0.148,0.967,0.271,5.622,0.271,10.343l0.004,8.587
	h-3.787h-3.785v-8.434c0-9.937-0.16-10.942-2.057-12.836c-1.959-1.959-2.188-1.987-16.516-1.987h-12.525v11.628v11.628h-3.787
	h-3.785V338.518L367.271,338.518z M386.201,344.062v-9.736h3.65h3.65v9.736v9.735h-3.65h-3.65V344.062L386.201,344.062z
	 M436.281,353.249c-2.643-0.692-4.463-1.714-6.266-3.516c-1.83-1.832-2.826-3.631-3.527-6.371c-0.479-1.878-0.535-3.01-0.535-11.108
	v-9.016h19.336h19.336v3.65v3.651h-15.695h-15.695l0.078,2.231l0.078,2.23l13.318,0.071l13.32,0.069v3.378v3.378h-12.938
	c-7.115,0-13.014,0.076-13.104,0.169c-0.223,0.219,0.516,1.677,1.258,2.494c0.316,0.349,1.064,0.896,1.66,1.217
	c1.059,0.569,1.354,0.583,14.398,0.659l13.318,0.077v3.642v3.641l-13.186-0.015C439.351,353.769,438.093,353.724,436.281,353.249
	L436.281,353.249z M476.253,338.518v-15.279h3.254c3.082,0,3.391,0.051,5.748,0.96c7.045,2.715,14.381,7.827,21.541,15.007
	l3.668,3.677l-0.088-9.822l-0.086-9.823h3.668h3.67v15.279v15.279h-3.896h-3.896l-2.662-3.448
	c-3.221-4.175-10.145-11.206-13.479-13.686c-2.152-1.604-7.875-4.711-9.531-5.177l-0.607-0.171v11.241v11.241h-3.652h-3.65V338.518
	L476.253,338.518z M542.238,342.168V330.54h-6.762h-6.762v-3.651v-3.65h17.037h17.037v3.65v3.651h-6.625h-6.625v11.628v11.628
	h-3.652h-3.648V342.168L542.238,342.168z M162.558,300.411v-3.674l12.913-0.002c8.177-0.001,13.287-0.105,13.934-0.285
	c1.435-0.398,2.781-1.677,3.267-3.103l0.411-1.208h-15.262h-15.264v-3.225c0-7.819,1.541-11.584,5.632-13.765
	c3.004-1.601,3.675-1.661,18.504-1.666l13.454-0.004v3.516v3.516h-13.075c-9.042,0-13.359,0.095-13.995,0.308
	c-1.176,0.393-2.37,1.48-2.846,2.591c-0.784,1.833-1.945,1.698,14.771,1.698h15.145v4.207c0,5.132-0.421,7.274-1.863,9.505
	c-1.521,2.352-3.582,3.729-6.85,4.583c-1.432,0.373-3.838,0.462-15.288,0.563l-13.589,0.12L162.558,300.411L162.558,300.411z
	 M218.131,303.762c-6.148-0.657-10.02-3.569-12.003-9.026c-0.693-1.909-0.698-1.982-0.791-11.588l-0.094-9.668h19.086h19.087v3.514
	v3.514l-15.347,0.07l-15.347,0.07l-0.078,3.515c-0.149,6.746,0.588,9.511,2.96,11.111c2.006,1.353,3.227,1.464,16.092,1.464h11.719
	v3.65v3.652l-11.696-0.037C225.287,303.981,219.172,303.874,218.131,303.762L218.131,303.762z M248.554,288.759V273.48h3.65h3.651
	v5.815v5.813h11.898h11.898v-5.813v-5.815h3.786h3.786v15.279v15.28h-3.786h-3.786v-5.95v-5.949h-11.898h-11.898v5.949v5.95h-3.651
	h-3.65V288.759L248.554,288.759z M305.884,303.77c-6.375-0.695-11.097-4.511-12.565-10.154c-0.334-1.278-0.414-3.409-0.414-10.863
	v-9.273h3.649h3.65v7.793c0,4.473,0.125,8.472,0.295,9.388c0.533,2.874,1.52,4.222,3.9,5.319c1.344,0.619,1.396,0.622,15.344,0.702
	l13.994,0.082v-11.642V273.48h3.787h3.785v15.279v15.28L324.476,304C315.216,303.979,306.851,303.875,305.884,303.77L305.884,303.77
	z M346.449,288.759V273.48h13.869c15.18,0,15.449,0.023,18.744,1.626c2.17,1.055,4.09,2.984,5.34,5.363
	c1.596,3.038,1.799,4.704,1.799,14.804v8.766h-3.646h-3.645l-0.072-5.882l-0.072-5.882h-12.439h-12.439l-0.072,5.882l-0.074,5.882
	h-3.646h-3.645V288.759L346.449,288.759z M378.087,284.878c0-0.858-1.52-2.646-2.748-3.235c-1.883-0.902-5.129-1.159-13.611-1.075
	l-7.844,0.078l-0.08,2.003c-0.043,1.102-0.018,2.166,0.059,2.366c0.115,0.297,2.352,0.364,12.184,0.364
	C377.583,285.379,378.087,285.358,378.087,284.878L378.087,284.878z M391.88,288.759V273.48h20.281h20.281v4.271
	c0,4.701-0.32,6.521-1.555,8.786c-1.383,2.542-4.277,4.459-7.713,5.111l-1.762,0.334l5.582,5.781
	c3.07,3.179,5.623,5.892,5.674,6.028c0.051,0.143-1.77,0.248-4.33,0.248h-4.418l-5.947-5.95l-5.943-5.949h-4.666h-4.668v-3.516
	v-3.516l9.533-0.003c9.389-0.005,9.549-0.014,10.607-0.615c1.135-0.643,2.293-2.337,2.301-3.37l0.004-0.608h-12.846h-12.846v11.764
	v11.764h-3.785h-3.787v-15.281H391.88z M446.183,294.371c5.211-5.317,10.398-10.578,11.525-11.69
	c1.127-1.111,2.049-2.115,2.049-2.231c0-0.115-4.381-0.209-9.734-0.209h-9.734v-3.38v-3.381h18.045h18.051l-4.732,4.8
	c-2.602,2.64-7.773,7.903-11.49,11.696l-6.758,6.896l11.154,0.071l11.154,0.071v3.513v3.513H456.21h-19.506L446.183,294.371
	L446.183,294.371z M495.183,303.859c-6.969-0.681-11.354-4.14-13.154-10.379c-0.338-1.165-0.455-3.429-0.564-10.738l-0.135-9.262
	h19.502h19.502v3.516v3.516h-15.686h-15.686v2.299v2.298h13.387h13.387v3.516v3.516h-13.137h-13.133l0.18,0.608
	c0.287,0.965,1.561,2.42,2.586,2.951c1.76,0.915,3.654,1.038,15.969,1.038h12.133v3.65v3.652l-12.102-0.044
	C501.576,303.971,495.703,303.91,495.183,303.859L495.183,303.859z M524.66,300.411v-3.674h12.727
	c8.299,0,13.133-0.103,13.896-0.295c1.4-0.353,2.746-1.641,3.254-3.119l0.359-1.048l-15.117-0.07l-15.119-0.07v-4.571
	c0-3.717,0.096-4.876,0.508-6.208c0.988-3.168,2.498-5.035,5.176-6.392c2.773-1.405,3.646-1.476,18.182-1.48l13.453-0.004v3.516
	v3.516l-13.184,0.006c-12.213,0.005-13.262,0.042-14.266,0.502c-0.596,0.274-1.289,0.732-1.545,1.019
	c-0.479,0.538-1.295,2.298-1.295,2.791c0,0.189,4.922,0.279,15.17,0.279h15.17l-0.109,5.071c-0.096,4.497-0.178,5.249-0.729,6.651
	c-0.863,2.195-2.535,4.139-4.484,5.217c-3.121,1.724-3.693,1.783-18.592,1.917l-13.453,0.122v-3.676H524.66z M313.726,283.215
	v-9.736h3.787h3.785v9.736v9.735h-3.785h-3.787V283.215L313.726,283.215z"/>
</svg>
